<svg width="161" height="15" viewBox="0 0 161 15" fill="none" xmlns="http://www.w3.org/2000/svg">
<path d="M9.78366 2.54925H6.15615C5.55019 2.53989 4.9484 2.64958 4.38582 2.87192C3.82324 3.09426 3.3111 3.42482 2.87924 3.84434C2.44737 4.26387 2.1044 4.76397 1.87029 5.31555C1.63619 5.86712 1.51562 6.45914 1.51562 7.05713C1.51562 7.65512 1.63619 8.24714 1.87029 8.79871C2.1044 9.35028 2.44737 9.8504 2.87924 10.2699C3.3111 10.6894 3.82324 11.02 4.38582 11.2423C4.9484 11.4647 5.55019 11.5744 6.15615 11.565H9.77807C9.89247 11.565 10.0023 11.5206 10.0837 11.4413C10.1651 11.362 10.2116 11.2542 10.2131 11.1413V8.52629C10.2115 8.41757 10.1684 8.31345 10.0923 8.23485C10.0161 8.15624 9.91266 8.10899 9.80267 8.10259H6.15615C6.01411 8.10714 5.8726 8.08347 5.74003 8.03298C5.60745 7.98249 5.48651 7.90622 5.38441 7.80869C5.28231 7.71116 5.20112 7.59437 5.14567 7.46526C5.09022 7.33615 5.06165 7.19735 5.06165 7.05713C5.06165 6.91691 5.09022 6.77812 5.14567 6.64901C5.20112 6.5199 5.28231 6.40311 5.38441 6.30558C5.48651 6.20805 5.60745 6.13177 5.74003 6.08128C5.8726 6.03079 6.01411 6.00712 6.15615 6.01167H9.79819C9.90888 6.00663 10.0135 5.96008 10.0905 5.88155C10.1676 5.80301 10.2115 5.6984 10.2131 5.58907V2.97295C10.2116 2.86102 10.1659 2.75408 10.0857 2.67493C10.0055 2.59577 9.89709 2.55068 9.78366 2.54925Z" fill="#CC0020"/>
<path d="M16.0211 2.54925H12.4316C12.3217 2.55073 12.2165 2.5932 12.137 2.66811C12.0576 2.74303 12.0098 2.84484 12.0033 2.95309V5.60784C12.0098 5.71571 12.0572 5.81721 12.1362 5.89207C12.2152 5.96693 12.3199 6.00964 12.4294 6.01168H16.0211C16.3028 6.01168 16.573 6.12211 16.7722 6.31869C16.9715 6.51527 17.0834 6.78189 17.0834 7.05989C17.0834 7.3379 16.9715 7.60451 16.7722 7.80109C16.573 7.99767 16.3028 8.10811 16.0211 8.10811H12.4428C12.3319 8.1082 12.2253 8.15005 12.1446 8.2251C12.064 8.30016 12.0155 8.40276 12.0089 8.51195V13.6184C12.0153 13.7256 12.0621 13.8264 12.1401 13.9012C12.2182 13.9759 12.3218 14.0191 12.4305 14.0223H13.0388C13.0827 14.025 13.1266 14.0176 13.1672 14.0008C13.2077 13.9839 13.2438 13.958 13.2725 13.9252L15.5537 11.5694H16.0211C17.2203 11.5509 18.3641 11.0678 19.2056 10.2245C20.047 9.38108 20.5186 8.24504 20.5186 7.06155C20.5186 5.87805 20.047 4.74201 19.2056 3.89863C18.3641 3.05525 17.2203 2.57218 16.0211 2.55366V2.54925Z" fill="#383838"/>
<path d="M26.7609 1.83249H28.2333L31.6953 10.2885H31.8147L35.2767 1.83249H36.749V12.0195H35.595V4.27977H35.4955L32.3121 12.0195H31.1979L28.0144 4.27977H27.9149V12.0195H26.7609V1.83249ZM43.1778 8.89577V4.37925H44.3517V12.0195H43.1778V10.7263H43.0982C42.9192 11.1142 42.6406 11.4442 42.2626 11.7161C41.8846 11.9847 41.407 12.119 40.83 12.119C40.3525 12.119 39.9281 12.0146 39.5567 11.8056C39.1853 11.5934 38.8934 11.2751 38.6812 10.8506C38.469 10.4228 38.3629 9.88397 38.3629 9.23401V4.37925H39.5368V9.15443C39.5368 9.71153 39.6926 10.1559 40.0043 10.4875C40.3194 10.8191 40.7206 10.9849 41.2081 10.9849C41.4999 10.9849 41.7967 10.9103 42.0984 10.7611C42.4035 10.6118 42.6589 10.383 42.8645 10.0746C43.0734 9.76625 43.1778 9.37329 43.1778 8.89577ZM46.9753 7.42343V12.0195H45.8014V4.37925H46.9355V5.57305H47.035C47.2141 5.18506 47.486 4.87335 47.8508 4.63791C48.2156 4.39915 48.6864 4.27977 49.2634 4.27977C49.7808 4.27977 50.2334 4.38588 50.6214 4.59811C51.0094 4.80703 51.3111 5.12537 51.5267 5.55315C51.7422 5.97761 51.85 6.51482 51.85 7.16477V12.0195H50.6761V7.24436C50.6761 6.64414 50.5202 6.17657 50.2085 5.84165C49.8968 5.50341 49.469 5.33429 48.9252 5.33429C48.5505 5.33429 48.2156 5.41553 47.9204 5.57802C47.6286 5.74051 47.3981 5.97761 47.229 6.28932C47.0599 6.60103 46.9753 6.97907 46.9753 7.42343ZM53.2947 12.0195V4.37925H54.4686V12.0195H53.2947ZM53.8916 3.10587C53.6628 3.10587 53.4655 3.02794 53.2997 2.87209C53.1372 2.71623 53.056 2.52887 53.056 2.31001C53.056 2.09115 53.1372 1.90379 53.2997 1.74793C53.4655 1.59207 53.6628 1.51415 53.8916 1.51415C54.1204 1.51415 54.3161 1.59207 54.4786 1.74793C54.6444 1.90379 54.7273 2.09115 54.7273 2.31001C54.7273 2.52887 54.6444 2.71623 54.4786 2.87209C54.3161 3.02794 54.1204 3.10587 53.8916 3.10587ZM59.0222 12.1787C58.3059 12.1787 57.6891 12.0096 57.1718 11.6713C56.6545 11.3331 56.2566 10.8672 55.978 10.2736C55.6995 9.68003 55.5602 9.00189 55.5602 8.23918C55.5602 7.46322 55.7028 6.77845 55.988 6.18486C56.2765 5.58797 56.6777 5.12206 57.1917 4.78713C57.709 4.44889 58.3126 4.27977 59.0023 4.27977C59.5395 4.27977 60.0237 4.37925 60.4548 4.57822C60.8859 4.77718 61.239 5.05573 61.5143 5.41387C61.7895 5.77201 61.9603 6.18984 62.0266 6.66736H60.8527C60.7632 6.31917 60.5642 6.01077 60.2558 5.74217C59.9507 5.47025 59.5395 5.33429 59.0222 5.33429C58.5646 5.33429 58.1633 5.45367 57.8185 5.69242C57.4769 5.92787 57.21 6.26113 57.0176 6.69223C56.8286 7.12 56.7341 7.62239 56.7341 8.19939C56.7341 8.78966 56.827 9.30365 57.0127 9.74137C57.2017 10.1791 57.467 10.519 57.8085 10.7611C58.1534 11.0031 58.558 11.1242 59.0222 11.1242C59.3273 11.1242 59.6042 11.0711 59.8529 10.965C60.1016 10.8589 60.3122 10.7064 60.4846 10.5074C60.657 10.3084 60.7797 10.0697 60.8527 9.79112H62.0266C61.9603 10.2421 61.7961 10.6483 61.5342 11.0098C61.2755 11.3679 60.9323 11.6531 60.5045 11.8653C60.08 12.0742 59.5859 12.1787 59.0222 12.1787ZM66.1462 12.1787C65.4564 12.1787 64.8512 12.0146 64.3306 11.6863C63.8133 11.358 63.4087 10.8987 63.1169 10.3084C62.8284 9.71816 62.6842 9.02841 62.6842 8.23918C62.6842 7.44332 62.8284 6.7486 63.1169 6.15502C63.4087 5.56144 63.8133 5.1005 64.3306 4.77221C64.8512 4.44392 65.4564 4.27977 66.1462 4.27977C66.8359 4.27977 67.4395 4.44392 67.9568 4.77221C68.4774 5.1005 68.882 5.56144 69.1705 6.15502C69.4623 6.7486 69.6082 7.44332 69.6082 8.23918C69.6082 9.02841 69.4623 9.71816 69.1705 10.3084C68.882 10.8987 68.4774 11.358 67.9568 11.6863C67.4395 12.0146 66.8359 12.1787 66.1462 12.1787ZM66.1462 11.1242C66.6701 11.1242 67.1012 10.9899 67.4394 10.7213C67.7777 10.4527 68.0281 10.0995 68.1905 9.66179C68.353 9.22406 68.4343 8.74986 68.4343 8.23918C68.4343 7.72851 68.353 7.25265 68.1905 6.81161C68.0281 6.37057 67.7777 6.01409 67.4394 5.74217C67.1012 5.47025 66.6701 5.33429 66.1462 5.33429C65.6222 5.33429 65.1911 5.47025 64.8529 5.74217C64.5147 6.01409 64.2643 6.37057 64.1018 6.81161C63.9393 7.25265 63.8581 7.72851 63.8581 8.23918C63.8581 8.74986 63.9393 9.22406 64.1018 9.66179C64.2643 10.0995 64.5147 10.4527 64.8529 10.7213C65.1911 10.9899 65.6222 11.1242 66.1462 11.1242ZM73.5848 12.1787C72.9481 12.1787 72.386 12.0179 71.8985 11.6962C71.4111 11.3712 71.0297 10.9136 70.7545 10.3233C70.4792 9.72977 70.3416 9.02841 70.3416 8.21929C70.3416 7.41679 70.4792 6.72041 70.7545 6.13015C71.0297 5.53988 71.4127 5.08392 71.9035 4.76226C72.3943 4.4406 72.9613 4.27977 73.6046 4.27977C74.1021 4.27977 74.495 4.36267 74.7835 4.52848C75.0753 4.69096 75.2975 4.87667 75.4501 5.08558C75.6059 5.29118 75.7269 5.4603 75.8132 5.59294H75.9126V1.83249H77.0865V12.0195H75.9524V10.8456H75.8132C75.7269 10.9849 75.6043 11.1607 75.4451 11.3729C75.2859 11.5818 75.0588 11.7692 74.7636 11.935C74.4685 12.0975 74.0755 12.1787 73.5848 12.1787ZM73.7439 11.1242C74.2148 11.1242 74.6127 11.0015 74.9377 10.7561C75.2627 10.5074 75.5097 10.1642 75.6789 9.72645C75.848 9.28541 75.9325 8.77639 75.9325 8.19939C75.9325 7.62902 75.8496 7.12995 75.6838 6.70217C75.518 6.27108 75.2726 5.93616 74.9477 5.6974C74.6227 5.45532 74.2214 5.33429 73.7439 5.33429C73.2465 5.33429 72.832 5.46196 72.5004 5.7173C72.1721 5.96932 71.925 6.31253 71.7592 6.74694C71.5968 7.17803 71.5155 7.66218 71.5155 8.19939C71.5155 8.74323 71.5984 9.23733 71.7642 9.68169C71.9333 10.1227 72.182 10.4742 72.5103 10.7362C72.8419 10.9949 73.2531 11.1242 73.7439 11.1242ZM81.9025 12.1787C81.1663 12.1787 80.5313 12.0162 79.9974 11.6912C79.4668 11.3629 79.0573 10.9053 78.7688 10.3184C78.4836 9.72811 78.341 9.04168 78.341 8.25908C78.341 7.47648 78.4836 6.78674 78.7688 6.18984C79.0573 5.58963 79.4585 5.12206 79.9725 4.78713C80.4899 4.44889 81.0934 4.27977 81.7831 4.27977C82.1811 4.27977 82.574 4.34609 82.962 4.47873C83.35 4.61138 83.7031 4.82692 84.0215 5.12537C84.3398 5.4205 84.5935 5.8118 84.7825 6.29927C84.9716 6.78674 85.0661 7.38695 85.0661 8.09991V8.59732H79.1767V7.5826H83.8723C83.8723 7.15151 83.7861 6.76684 83.6136 6.4286C83.4445 6.09036 83.2024 5.82341 82.8874 5.62776C82.5757 5.43211 82.2076 5.33429 81.7831 5.33429C81.3156 5.33429 80.911 5.45035 80.5694 5.68248C80.2312 5.91129 79.9709 6.20974 79.7885 6.57782C79.6061 6.94591 79.5149 7.34052 79.5149 7.76167V8.43815C79.5149 9.01515 79.6144 9.50427 79.8134 9.90552C80.0157 10.3035 80.2959 10.6069 80.654 10.8158C81.0121 11.0214 81.4283 11.1242 81.9025 11.1242C82.2109 11.1242 82.4895 11.0811 82.7382 10.9949C82.9902 10.9053 83.2074 10.7727 83.3898 10.5969C83.5722 10.4179 83.7131 10.1957 83.8126 9.93039L84.9467 10.2487C84.8273 10.6334 84.6267 10.9716 84.3448 11.2635C84.0629 11.552 83.7148 11.7775 83.3002 11.9399C82.8857 12.0991 82.4198 12.1787 81.9025 12.1787ZM97.7471 5.01594H96.5135C96.4406 4.66112 96.3129 4.34941 96.1305 4.0808C95.9515 3.8122 95.7326 3.58671 95.474 3.40432C95.2186 3.21862 94.9351 3.07934 94.6234 2.98649C94.3117 2.89364 93.9867 2.84722 93.6484 2.84722C93.0317 2.84722 92.4729 3.00307 91.9722 3.31479C91.4747 3.6265 91.0785 4.08578 90.7833 4.69262C90.4915 5.29947 90.3456 6.04393 90.3456 6.92601C90.3456 7.80809 90.4915 8.55256 90.7833 9.1594C91.0785 9.76625 91.4747 10.2255 91.9722 10.5372C92.4729 10.849 93.0317 11.0048 93.6484 11.0048C93.9867 11.0048 94.3117 10.9584 94.6234 10.8655C94.9351 10.7727 95.2186 10.6351 95.474 10.4527C95.7326 10.267 95.9515 10.0398 96.1305 9.77122C96.3129 9.4993 96.4406 9.18759 96.5135 8.83608H97.7471C97.6543 9.35671 97.4852 9.82262 97.2398 10.2338C96.9944 10.645 96.6893 10.9949 96.3245 11.2834C95.9598 11.5685 95.5502 11.7857 95.0959 11.935C94.6449 12.0842 94.1624 12.1588 93.6484 12.1588C92.7796 12.1588 92.007 11.9466 91.3305 11.5221C90.654 11.0977 90.1218 10.4941 89.7338 9.71153C89.3458 8.92893 89.1518 8.00043 89.1518 6.92601C89.1518 5.8516 89.3458 4.92309 89.7338 4.14049C90.1218 3.35789 90.654 2.75437 91.3305 2.32991C92.007 1.90545 92.7796 1.69322 93.6484 1.69322C94.1624 1.69322 94.6449 1.76783 95.0959 1.91705C95.5502 2.06628 95.9598 2.28514 96.3245 2.57364C96.6893 2.85882 96.9944 3.20701 97.2398 3.61821C97.4852 4.02609 97.6543 4.492 97.7471 5.01594ZM101.985 12.1787C101.295 12.1787 100.69 12.0146 100.169 11.6863C99.652 11.358 99.2474 10.8987 98.9556 10.3084C98.6671 9.71816 98.5229 9.02841 98.5229 8.23918C98.5229 7.44332 98.6671 6.7486 98.9556 6.15502C99.2474 5.56144 99.652 5.1005 100.169 4.77221C100.69 4.44392 101.295 4.27977 101.985 4.27977C102.675 4.27977 103.278 4.44392 103.795 4.77221C104.316 5.1005 104.721 5.56144 105.009 6.15502C105.301 6.7486 105.447 7.44332 105.447 8.23918C105.447 9.02841 105.301 9.71816 105.009 10.3084C104.721 10.8987 104.316 11.358 103.795 11.6863C103.278 12.0146 102.675 12.1787 101.985 12.1787ZM101.985 11.1242C102.509 11.1242 102.94 10.9899 103.278 10.7213C103.616 10.4527 103.867 10.0995 104.029 9.66179C104.192 9.22406 104.273 8.74986 104.273 8.23918C104.273 7.72851 104.192 7.25265 104.029 6.81161C103.867 6.37057 103.616 6.01409 103.278 5.74217C102.94 5.47025 102.509 5.33429 101.985 5.33429C101.461 5.33429 101.03 5.47025 100.692 5.74217C100.353 6.01409 100.103 6.37057 99.9405 6.81161C99.778 7.25265 99.6968 7.72851 99.6968 8.23918C99.6968 8.74986 99.778 9.22406 99.9405 9.66179C100.103 10.0995 100.353 10.4527 100.692 10.7213C101.03 10.9899 101.461 11.1242 101.985 11.1242ZM109.423 12.1787C108.787 12.1787 108.225 12.0179 107.737 11.6962C107.25 11.3712 106.868 10.9136 106.593 10.3233C106.318 9.72977 106.18 9.02841 106.18 8.21929C106.18 7.41679 106.318 6.72041 106.593 6.13015C106.868 5.53988 107.251 5.08392 107.742 4.76226C108.233 4.4406 108.8 4.27977 109.443 4.27977C109.941 4.27977 110.334 4.36267 110.622 4.52848C110.914 4.69096 111.136 4.87667 111.289 5.08558C111.445 5.29118 111.566 5.4603 111.652 5.59294H111.751V1.83249H112.925V12.0195H111.791V10.8456H111.652C111.566 10.9849 111.443 11.1607 111.284 11.3729C111.125 11.5818 110.897 11.7692 110.602 11.935C110.307 12.0975 109.914 12.1787 109.423 12.1787ZM109.583 11.1242C110.053 11.1242 110.451 11.0015 110.776 10.7561C111.101 10.5074 111.348 10.1642 111.518 9.72645C111.687 9.28541 111.771 8.77639 111.771 8.19939C111.771 7.62902 111.688 7.12995 111.523 6.70217C111.357 6.27108 111.111 5.93616 110.786 5.6974C110.461 5.45532 110.06 5.33429 109.583 5.33429C109.085 5.33429 108.671 5.46196 108.339 5.7173C108.011 5.96932 107.764 6.31253 107.598 6.74694C107.435 7.17803 107.354 7.66218 107.354 8.19939C107.354 8.74323 107.437 9.23733 107.603 9.68169C107.772 10.1227 108.021 10.4742 108.349 10.7362C108.681 10.9949 109.092 11.1242 109.583 11.1242ZM114.538 12.0195V4.37925H115.712V12.0195H114.538ZM115.135 3.10587C114.906 3.10587 114.709 3.02794 114.543 2.87209C114.38 2.71623 114.299 2.52887 114.299 2.31001C114.299 2.09115 114.38 1.90379 114.543 1.74793C114.709 1.59207 114.906 1.51415 115.135 1.51415C115.364 1.51415 115.559 1.59207 115.722 1.74793C115.887 1.90379 115.97 2.09115 115.97 2.31001C115.97 2.52887 115.887 2.71623 115.722 2.87209C115.559 3.02794 115.364 3.10587 115.135 3.10587ZM120.564 4.37925V5.37408H116.445V4.37925H120.564ZM117.679 12.0195V3.32473C117.679 2.88701 117.782 2.52224 117.987 2.23042C118.193 1.93861 118.46 1.71974 118.788 1.57384C119.116 1.42793 119.463 1.35497 119.828 1.35497C120.116 1.35497 120.352 1.37819 120.534 1.42461C120.716 1.47104 120.852 1.51415 120.942 1.55394L120.604 2.56866C120.544 2.54877 120.461 2.5239 120.355 2.49405C120.252 2.46421 120.116 2.44928 119.947 2.44928C119.559 2.44928 119.279 2.54711 119.106 2.74276C118.937 2.93841 118.853 3.22525 118.853 3.60329V12.0195H117.679ZM121.509 12.0195V4.37925H122.683V12.0195H121.509ZM122.106 3.10587C121.877 3.10587 121.679 3.02794 121.514 2.87209C121.351 2.71623 121.27 2.52887 121.27 2.31001C121.27 2.09115 121.351 1.90379 121.514 1.74793C121.679 1.59207 121.877 1.51415 122.106 1.51415C122.334 1.51415 122.53 1.59207 122.692 1.74793C122.858 1.90379 122.941 2.09115 122.941 2.31001C122.941 2.52887 122.858 2.71623 122.692 2.87209C122.53 3.02794 122.334 3.10587 122.106 3.10587ZM127.236 12.1787C126.52 12.1787 125.903 12.0096 125.386 11.6713C124.868 11.3331 124.47 10.8672 124.192 10.2736C123.913 9.68003 123.774 9.00189 123.774 8.23918C123.774 7.46322 123.917 6.77845 124.202 6.18486C124.49 5.58797 124.892 5.12206 125.406 4.78713C125.923 4.44889 126.526 4.27977 127.216 4.27977C127.753 4.27977 128.238 4.37925 128.669 4.57822C129.1 4.77718 129.453 5.05573 129.728 5.41387C130.003 5.77201 130.174 6.18984 130.24 6.66736H129.067C128.977 6.31917 128.778 6.01077 128.47 5.74217C128.165 5.47025 127.753 5.33429 127.236 5.33429C126.778 5.33429 126.377 5.45367 126.032 5.69242C125.691 5.92787 125.424 6.26113 125.231 6.69223C125.042 7.12 124.948 7.62239 124.948 8.19939C124.948 8.78966 125.041 9.30365 125.227 9.74137C125.416 10.1791 125.681 10.519 126.022 10.7611C126.367 11.0031 126.772 11.1242 127.236 11.1242C127.541 11.1242 127.818 11.0711 128.067 10.965C128.315 10.8589 128.526 10.7064 128.698 10.5074C128.871 10.3084 128.994 10.0697 129.067 9.79112H130.24C130.174 10.2421 130.01 10.6483 129.748 11.0098C129.489 11.3679 129.146 11.6531 128.718 11.8653C128.294 12.0742 127.8 12.1787 127.236 12.1787ZM133.504 12.1986C133.02 12.1986 132.581 12.1074 132.186 11.925C131.792 11.7393 131.478 11.4724 131.246 11.1242C131.014 10.7727 130.898 10.3482 130.898 9.85081C130.898 9.41308 130.984 9.05826 131.157 8.78634C131.329 8.5111 131.56 8.29556 131.848 8.1397C132.137 7.98385 132.455 7.86778 132.803 7.79151C133.155 7.71193 133.508 7.64892 133.863 7.60249C134.327 7.5428 134.703 7.49804 134.992 7.46819C135.284 7.43503 135.496 7.38032 135.628 7.30405C135.764 7.22778 135.832 7.09513 135.832 6.90611V6.86632C135.832 6.37554 135.698 5.99419 135.429 5.72227C135.164 5.45035 134.761 5.31439 134.221 5.31439C133.66 5.31439 133.221 5.43709 132.903 5.68248C132.584 5.92787 132.36 6.18984 132.231 6.46839L131.117 6.07046C131.316 5.60621 131.581 5.24475 131.913 4.9861C132.248 4.72413 132.612 4.54174 133.007 4.43894C133.405 4.33283 133.796 4.27977 134.181 4.27977C134.426 4.27977 134.708 4.30961 135.027 4.3693C135.348 4.42568 135.658 4.5434 135.957 4.72247C136.259 4.90154 136.509 5.1718 136.708 5.53325C136.907 5.89471 137.006 6.37886 137.006 6.9857V12.0195H135.832V10.9849H135.773C135.693 11.1507 135.56 11.3281 135.375 11.5171C135.189 11.7062 134.942 11.867 134.634 11.9996C134.325 12.1323 133.949 12.1986 133.504 12.1986ZM133.684 11.1441C134.148 11.1441 134.539 11.0529 134.857 10.8705C135.179 10.6881 135.421 10.4527 135.584 10.1642C135.749 9.87568 135.832 9.57225 135.832 9.25391V8.17949C135.783 8.23918 135.673 8.2939 135.504 8.34364C135.338 8.39007 135.146 8.43152 134.927 8.46799C134.712 8.50116 134.501 8.531 134.295 8.55753C134.093 8.58074 133.929 8.60064 133.803 8.61722C133.498 8.65701 133.213 8.72168 132.947 8.81121C132.685 8.89743 132.473 9.02841 132.311 9.20417C132.152 9.3766 132.072 9.61205 132.072 9.9105C132.072 10.3184 132.223 10.6268 132.525 10.8357C132.83 11.0413 133.216 11.1441 133.684 11.1441ZM141.771 4.37925V5.37408H137.812V4.37925H141.771ZM138.966 2.54877H140.14V9.83091C140.14 10.1625 140.188 10.4112 140.284 10.577C140.383 10.7395 140.509 10.849 140.662 10.9053C140.818 10.9584 140.982 10.9849 141.154 10.9849C141.284 10.9849 141.39 10.9783 141.473 10.965C141.556 10.9484 141.622 10.9352 141.672 10.9252L141.911 11.9797C141.831 12.0096 141.72 12.0394 141.577 12.0693C141.435 12.1024 141.254 12.119 141.035 12.119C140.703 12.119 140.379 12.0477 140.06 11.9051C139.745 11.7625 139.483 11.5453 139.274 11.2535C139.069 10.9617 138.966 10.5936 138.966 10.1493V2.54877ZM142.837 12.0195V4.37925H144.011V12.0195H142.837ZM143.434 3.10587C143.205 3.10587 143.008 3.02794 142.842 2.87209C142.679 2.71623 142.598 2.52887 142.598 2.31001C142.598 2.09115 142.679 1.90379 142.842 1.74793C143.008 1.59207 143.205 1.51415 143.434 1.51415C143.662 1.51415 143.858 1.59207 144.021 1.74793C144.186 1.90379 144.269 2.09115 144.269 2.31001C144.269 2.52887 144.186 2.71623 144.021 2.87209C143.858 3.02794 143.662 3.10587 143.434 3.10587ZM148.564 12.1787C147.874 12.1787 147.269 12.0146 146.749 11.6863C146.231 11.358 145.827 10.8987 145.535 10.3084C145.246 9.71816 145.102 9.02841 145.102 8.23918C145.102 7.44332 145.246 6.7486 145.535 6.15502C145.827 5.56144 146.231 5.1005 146.749 4.77221C147.269 4.44392 147.874 4.27977 148.564 4.27977C149.254 4.27977 149.857 4.44392 150.375 4.77221C150.895 5.1005 151.3 5.56144 151.588 6.15502C151.88 6.7486 152.026 7.44332 152.026 8.23918C152.026 9.02841 151.88 9.71816 151.588 10.3084C151.3 10.8987 150.895 11.358 150.375 11.6863C149.857 12.0146 149.254 12.1787 148.564 12.1787ZM148.564 11.1242C149.088 11.1242 149.519 10.9899 149.857 10.7213C150.196 10.4527 150.446 10.0995 150.609 9.66179C150.771 9.22406 150.852 8.74986 150.852 8.23918C150.852 7.72851 150.771 7.25265 150.609 6.81161C150.446 6.37057 150.196 6.01409 149.857 5.74217C149.519 5.47025 149.088 5.33429 148.564 5.33429C148.04 5.33429 147.609 5.47025 147.271 5.74217C146.933 6.01409 146.682 6.37057 146.52 6.81161C146.357 7.25265 146.276 7.72851 146.276 8.23918C146.276 8.74986 146.357 9.22406 146.52 9.66179C146.682 10.0995 146.933 10.4527 147.271 10.7213C147.609 10.9899 148.04 11.1242 148.564 11.1242ZM154.292 7.42343V12.0195H153.118V4.37925H154.252V5.57305H154.351C154.53 5.18506 154.802 4.87335 155.167 4.63791C155.532 4.39915 156.003 4.27977 156.58 4.27977C157.097 4.27977 157.55 4.38588 157.938 4.59811C158.326 4.80703 158.627 5.12537 158.843 5.55315C159.059 5.97761 159.166 6.51482 159.166 7.16477V12.0195H157.992V7.24436C157.992 6.64414 157.837 6.17657 157.525 5.84165C157.213 5.50341 156.785 5.33429 156.242 5.33429C155.867 5.33429 155.532 5.41553 155.237 5.57802C154.945 5.74051 154.714 5.97761 154.545 6.28932C154.376 6.60103 154.292 6.97907 154.292 7.42343Z" fill="#383838"/>
</svg>
